<svg width="79" height="79" viewBox="0 0 79 79" fill="none" xmlns="http://www.w3.org/2000/svg">
<rect x="9" y="9" width="70" height="70" fill="#D1D1D1"/>
<rect width="70" height="70" fill="#11749E"/>
<path d="M28.792 26.0557C27.9229 26.0557 27.1514 26.2266 26.4775 26.5684C25.8135 26.9004 25.252 27.3838 24.793 28.0186C24.3438 28.6533 24.002 29.4199 23.7676 30.3184C23.5332 31.2168 23.416 32.2275 23.416 33.3506C23.416 34.8643 23.6016 36.1582 23.9727 37.2324C24.3535 38.2969 24.9395 39.1123 25.7305 39.6787C26.5215 40.2354 27.542 40.5137 28.792 40.5137C29.6611 40.5137 30.5303 40.416 31.3994 40.2207C32.2783 40.0254 33.2305 39.7471 34.2559 39.3857V43.1943C33.3086 43.585 32.376 43.8633 31.458 44.0293C30.54 44.2051 29.5098 44.293 28.3672 44.293C26.1602 44.293 24.3438 43.8389 22.918 42.9307C21.502 42.0127 20.4521 40.7334 19.7686 39.0928C19.085 37.4424 18.7432 35.5186 18.7432 33.3213C18.7432 31.7002 18.9629 30.2158 19.4023 28.8682C19.8418 27.5205 20.4863 26.3535 21.3359 25.3672C22.1855 24.3809 23.2354 23.6191 24.4854 23.082C25.7354 22.5449 27.1709 22.2764 28.792 22.2764C29.8564 22.2764 30.9209 22.4131 31.9854 22.6865C33.0596 22.9502 34.085 23.3164 35.0615 23.7852L33.5967 27.4766C32.7959 27.0957 31.9902 26.7637 31.1797 26.4805C30.3691 26.1973 29.5732 26.0557 28.792 26.0557ZM51.4678 38.0527C51.4678 39.3223 51.1602 40.4258 50.5449 41.3633C49.9297 42.3008 49.0312 43.0234 47.8496 43.5312C46.6777 44.0391 45.252 44.293 43.5723 44.293C42.8301 44.293 42.1025 44.2441 41.3896 44.1465C40.6865 44.0488 40.0078 43.9072 39.3535 43.7217C38.709 43.5264 38.0938 43.2871 37.5078 43.0039V38.7852C38.5234 39.2344 39.5781 39.6396 40.6719 40.001C41.7656 40.3623 42.8496 40.543 43.9238 40.543C44.666 40.543 45.2617 40.4453 45.7109 40.25C46.1699 40.0547 46.502 39.7861 46.707 39.4443C46.9121 39.1025 47.0146 38.7119 47.0146 38.2725C47.0146 37.7354 46.834 37.2764 46.4727 36.8955C46.1113 36.5146 45.6133 36.1582 44.9785 35.8262C44.3535 35.4941 43.6455 35.1377 42.8545 34.7568C42.3564 34.5225 41.8145 34.2393 41.2285 33.9072C40.6426 33.5654 40.0859 33.1504 39.5586 32.6621C39.0312 32.1738 38.5967 31.583 38.2549 30.8896C37.9229 30.1865 37.7568 29.3467 37.7568 28.3701C37.7568 27.0908 38.0498 25.9971 38.6357 25.0889C39.2217 24.1807 40.0566 23.4873 41.1406 23.0088C42.2344 22.5205 43.5234 22.2764 45.0078 22.2764C46.1211 22.2764 47.1807 22.4082 48.1865 22.6719C49.2021 22.9258 50.2617 23.2969 51.3652 23.7852L49.9004 27.3154C48.9141 26.915 48.0303 26.6074 47.249 26.3926C46.4678 26.168 45.6719 26.0557 44.8613 26.0557C44.2949 26.0557 43.8115 26.1484 43.4111 26.334C43.0107 26.5098 42.708 26.7637 42.5029 27.0957C42.2979 27.418 42.1953 27.7939 42.1953 28.2236C42.1953 28.7314 42.3418 29.1611 42.6348 29.5127C42.9375 29.8545 43.3867 30.1865 43.9824 30.5088C44.5879 30.8311 45.3398 31.207 46.2383 31.6367C47.332 32.1543 48.2646 32.6963 49.0361 33.2627C49.8174 33.8193 50.418 34.4785 50.8379 35.2402C51.2578 35.9922 51.4678 36.9297 51.4678 38.0527Z" fill="white"/>
</svg>
